# xmcd
#
# Track frame offsets: 
#        150
#        12989
#        25023
#        36742
#        48122
#        60746
#        73024
#        88193
#        101245
#        114534
#        128929
#        141881
#        154032
#        169096
#        183292
#        197213
#        211284
#        224687
#        238877
#        251713
#
# Disc length: 3512 seconds
#
# Revision: 0
# Processed by: cddbd v1.5.2PL0 Copyright (c) Steve Scherf et al.
# Submitted via: ExactAudioCopyFreeDBPlugin 1.0
#
DISCID=320db614
DTITLE=Hank Snow - Famous Country Music Makers
DYEAR=1900
DGENRE=Country
TTITLE0=I'm Movin' On
TTITLE1=Marriage Vow
TTITLE2=The Star Spangled Waltz
TTITLE3=With This Ring I Thee Wed
TTITLE4=The Golden Rocket
TTITLE5=Paving The Highway With Tears
TTITLE6=Nobody's Child
TTITLE7=The Anniversary Of My Broken Heart
TTITLE8=Linda Lou
TTITLE9=My Sweet Texas Blue Bonnet Queen
TTITLE10=Down Where The Dark Waters Flow
TTITLE11=My Two Timin' Woman
TTITLE12=Wasted Love
TTITLE13=Somewhere Along Life's Highway
TTITLE14=Little Buddy
TTITLE15=Journey My Baby Back Home
TTITLE16=Just A Faded Petal From A Beautiful Bouquet
TTITLE17=The Night I Stole Old Sammy Morgan's Gin
TTITLE18=I'm Gonna Bid My Blues Away
TTITLE19=Brand On My Heart
EXTD=
EXTT0=
EXTT1=
EXTT2=
EXTT3=
EXTT4=
EXTT5=
EXTT6=
EXTT7=
EXTT8=
EXTT9=
EXTT10=
EXTT11=
EXTT12=
EXTT13=
EXTT14=
EXTT15=
EXTT16=
EXTT17=
EXTT18=
EXTT19=
PLAYORDER=
